<svg width="22" height="22" viewBox="0 0 22 22" fill="none" xmlns="http://www.w3.org/2000/svg">
<g clip-path="url(#clip0_970_589)">
<path d="M10.711 0.804436C5.01987 0.804436 0.405701 5.4186 0.405701 11.1097C0.405701 16.8008 5.01987 21.415 10.711 21.415C16.4021 21.415 21.0162 16.8008 21.0162 11.1097C21.0162 5.4186 16.4021 0.804436 10.711 0.804436ZM15.4285 15.6845C15.3017 15.8949 15.0777 16.0119 14.8488 16.0119C14.7294 16.0119 14.6088 15.9811 14.5005 15.9146C10.4414 13.474 5.63156 14.8857 5.58356 14.9005C5.22541 15.0088 4.84756 14.8069 4.73925 14.45C4.63094 14.0919 4.83156 13.714 5.18848 13.6057C5.40756 13.538 10.6125 11.9971 15.1984 14.7552C15.5184 14.9472 15.6217 15.3632 15.4285 15.6845ZM16.7085 12.8315C16.5608 13.0888 16.2913 13.2328 16.0144 13.2328C15.879 13.2328 15.7424 13.1983 15.6168 13.1257C10.519 10.194 5.38295 11.9011 5.33125 11.9183C4.91402 12.0623 4.45864 11.8395 4.31464 11.4211C4.17187 11.0039 4.39464 10.5485 4.81187 10.4057C5.04941 10.3245 10.6937 8.45 16.4144 11.7386C16.7971 11.9589 16.9288 12.4488 16.7085 12.8315ZM17.2808 10.0795C17.127 10.0795 16.9707 10.0426 16.8242 9.96631C10.9473 6.87953 4.91156 8.72692 4.85125 8.74661C4.33187 8.91031 3.77925 8.62231 3.61556 8.10415C3.45186 7.58476 3.73986 7.03215 4.25802 6.86845C4.53617 6.78107 11.1442 4.75891 17.7399 8.2223C18.2211 8.47584 18.407 9.07031 18.1534 9.55154C17.9774 9.88754 17.6353 10.0795 17.2808 10.0795Z" fill="#AEAEAE"/>
</g>
<defs>
<clipPath id="clip0_970_589">
<rect width="20.6105" height="20.6105" fill="white" transform="translate(0.405762 0.804321)"/>
</clipPath>
</defs>
</svg>
